<svg width="118" height="118" viewBox="0 0 118 118" fill="none" xmlns="http://www.w3.org/2000/svg">
<circle cx="59" cy="59" r="59" fill="#323640"/>
<path d="M69.1682 48.1824H51.7556V42.1926C51.7556 36.5721 47.1558 32 41.502 32H37.2644C31.6106 32 27.0115 36.5721 27.0115 42.1926V50.7616H31.2203V42.1926C31.2203 38.8789 33.9311 36.1841 37.2644 36.1841H41.502C44.836 36.1841 47.5475 38.8789 47.5475 42.1926V48.7603C44.222 50.0174 41.8479 53.2102 41.8479 56.9516V75.2322C41.8479 80.0662 45.805 84 50.6676 84H69.1695C74.0328 84 77.9892 80.0662 77.9892 75.2322V56.9516C77.9892 52.1169 74.0322 48.1824 69.1682 48.1824ZM73.7811 75.2322C73.7811 77.76 71.7123 79.8166 69.1695 79.8166H50.6676C48.1248 79.8166 46.0561 77.76 46.0561 75.2322V56.9516C46.0561 54.4231 48.1248 52.3664 50.6676 52.3664H69.1682C71.7117 52.3664 73.7811 54.4231 73.7811 56.9516V75.2322Z" fill="#FAD151"/>
<path d="M59.9179 62.9797C58.2388 62.9797 56.8723 64.3375 56.8723 66.0067C56.8723 67.3438 57.7635 68.5014 59.0162 68.8875V70.9513H60.8202V68.8875C62.073 68.5014 62.9641 67.3438 62.9641 66.0067C62.9641 64.3375 61.5976 62.9797 59.9179 62.9797Z" fill="#FAD151"/>
</svg>
