<svg width="80" height="80" viewBox="0 0 80 80" fill="none" xmlns="http://www.w3.org/2000/svg">
<path d="M40.0007 34.6667C37.11 34.6667 34.6673 32.8373 34.6673 30.6667C34.6673 28.496 37.11 26.6667 40.0007 26.6667C41.4513 26.6667 42.806 27.1147 43.814 27.936C44.95 28.864 46.63 28.6933 47.5633 27.552C48.4967 26.4107 48.326 24.7307 47.1793 23.8027C45.894 22.752 44.3367 22.048 42.6673 21.6693V18.6667C42.6673 17.1947 41.4727 16 40.0007 16C38.5287 16 37.334 17.1947 37.334 18.6667V21.664C32.7473 22.7093 29.334 26.3307 29.334 30.6667C29.334 35.8133 34.118 40 40.0007 40C42.8913 40 45.334 41.8293 45.334 44C45.334 46.1707 42.8913 48 40.0007 48C38.55 48 37.1953 47.552 36.1873 46.7307C35.046 45.808 33.366 45.968 32.438 47.1147C31.5046 48.256 31.6753 49.936 32.822 50.8693C34.1073 51.9147 35.6647 52.6187 37.334 52.9973V56C37.334 57.472 38.5287 58.6667 40.0007 58.6667C41.4727 58.6667 42.6673 57.472 42.6673 56V53.0027C47.254 51.9573 50.6673 48.336 50.6673 44C50.6673 38.8533 45.8833 34.6667 40.0007 34.6667Z" fill="white"/>
<path d="M72.0272 36.576L72.0005 13.3333C72.0005 12.2133 71.2965 11.2107 70.2458 10.8267L40.9125 0.16C40.3205 -0.0533333 39.6859 -0.0533333 39.0885 0.16L9.75519 10.8267C8.70452 11.2107 8.00052 12.2133 8.00052 13.3333L7.97385 36.576C7.79252 55.6107 7.66452 69.36 39.1579 79.8613C39.4352 79.952 39.7125 80 40.0005 80C40.2885 80 40.5658 79.952 40.8432 79.8613C72.3312 69.3653 72.2085 55.6107 72.0272 36.576ZM40.0005 74.5173C13.0352 65.3227 13.1312 55.0773 13.3072 36.6293L13.3339 15.2L40.0005 5.504L66.6672 15.2L66.6938 36.6293C66.8698 55.0773 66.9658 65.3227 40.0005 74.5173Z" fill="white"/>
</svg>
