<svg width="118" height="118" viewBox="0 0 118 118" fill="none" xmlns="http://www.w3.org/2000/svg">
<circle cx="59" cy="59" r="59" fill="#323640"/>
<path d="M62.3799 86H54.7112C53.3544 86 52.1746 84.98 51.9976 83.54L51.3487 78.44C50.8768 78.26 50.4639 78.08 50.0509 77.9L46.0986 81.08C45.6267 81.44 45.0368 81.68 44.4469 81.68C43.739 81.68 43.0311 81.38 42.5002 80.84L37.0731 75.32C36.0703 74.3 36.0113 72.74 36.8372 71.66L39.9047 67.64C39.7277 67.22 39.5507 66.74 39.3738 66.32L34.3596 65.66C33.0028 65.48 32 64.28 32 62.9V55.1C32 53.72 33.0028 52.52 34.4186 52.34L39.4327 51.68C39.6097 51.26 39.7867 50.78 39.9637 50.36L36.8962 46.34C36.0703 45.26 36.1293 43.64 37.1321 42.68L42.5592 37.16C43.0901 36.62 43.739 36.32 44.5059 36.32C45.0958 36.32 45.6857 36.5 46.1576 36.92L50.1099 40.04C50.5229 39.86 50.9948 39.68 51.4077 39.5L52.0566 34.4C52.1746 33.02 53.3544 32 54.7112 32H62.3799C63.7366 32 64.9164 33.02 65.0934 34.46L65.7423 39.56C66.1552 39.74 66.6271 39.92 67.0401 40.1L70.9924 36.92C71.4643 36.56 72.0542 36.32 72.6441 36.32C73.352 36.32 74.0599 36.62 74.5908 37.16L80.0179 42.68C80.9617 43.7 81.0797 45.26 80.2538 46.34L77.1863 50.36C77.3633 50.78 77.5403 51.26 77.7173 51.68L82.7314 52.34C84.0882 52.52 85.15 53.72 85.15 55.1V62.9C85.15 64.28 84.1472 65.48 82.7314 65.66L77.7173 66.32C77.5403 66.74 77.3633 67.22 77.1863 67.64L80.2538 71.66C81.0797 72.74 81.0207 74.36 80.0179 75.32L74.5908 80.84C74.0599 81.38 73.411 81.68 72.6441 81.68C72.0542 81.68 71.4643 81.5 70.9924 81.08L67.0401 77.96C66.6271 78.14 66.1552 78.32 65.7423 78.5L65.0934 83.6C64.9164 84.98 63.7366 86 62.3799 86ZM54.7701 83.18H62.3799L63.0287 78.08C63.1467 77.06 63.7956 76.16 64.7984 75.8C65.2114 75.62 65.6243 75.5 65.9782 75.32C66.8631 74.9 67.9839 75.02 68.7508 75.68L72.7031 78.8L78.0712 73.34L75.0037 69.32C74.3548 68.48 74.2368 67.4 74.6498 66.5C74.8267 66.08 75.0037 65.72 75.1217 65.3C75.4756 64.34 76.3015 63.68 77.3633 63.5L82.3775 62.84V55.16L77.3633 54.5C76.3605 54.38 75.4756 53.72 75.1217 52.7C74.9447 52.28 74.8267 51.86 74.6498 51.5C74.2368 50.54 74.3548 49.46 75.0037 48.68L78.0712 44.66L72.7031 39.2L68.7508 42.32C67.9839 42.92 66.8631 43.1 65.9782 42.68C65.5653 42.5 65.2114 42.32 64.7984 42.2C63.8546 41.84 63.2057 41 63.0287 39.92L62.3799 34.82H54.7701L54.1213 39.92C54.0033 40.94 53.3544 41.84 52.3516 42.2C51.9386 42.38 51.5257 42.5 51.1718 42.68C50.2869 43.1 49.1661 42.98 48.3992 42.32L44.4469 39.2L39.0788 44.66L42.1463 48.68C42.7952 49.52 42.9132 50.6 42.5002 51.5C42.3233 51.92 42.1463 52.28 42.0283 52.7C41.6744 53.66 40.8485 54.32 39.7867 54.5L34.7725 55.16V62.9L39.7867 63.56C40.7895 63.68 41.6744 64.34 42.0283 65.36C42.2053 65.78 42.3233 66.2 42.5002 66.56C42.9132 67.52 42.7952 68.6 42.1463 69.38L39.0788 73.4L44.4469 78.86L48.3992 75.74C49.1661 75.14 50.2869 74.96 51.1718 75.38C51.5847 75.56 51.9386 75.74 52.3516 75.86C53.2954 76.22 53.9443 77.06 54.1213 78.14L54.7701 83.18Z" fill="#FAD151"/>
<path d="M58.5455 46.58C61.9079 46.58 64.6215 49.34 64.6215 52.76V55.1H64.7985C66.0962 55.1 67.0991 56.18 67.0991 57.44V66.68C67.0991 68 66.0372 69.02 64.7985 69.02H52.2926C50.9948 69.02 49.992 67.94 49.992 66.68V57.44C49.992 56.12 51.0538 55.1 52.2926 55.1H52.4695V52.76C52.4695 49.34 55.1831 46.58 58.5455 46.58ZM54.9471 55.04H62.1439V52.7C62.1439 50.66 60.5512 49.04 58.5455 49.04C56.5398 49.04 54.9471 50.66 54.9471 52.7V55.04ZM57.3067 66.14H59.7843C60.1972 66.14 60.4922 65.78 60.3742 65.42L59.7253 61.64C60.1972 61.28 60.5512 60.68 60.5512 60.02C60.5512 58.88 59.6663 57.98 58.5455 57.98C57.4247 57.98 56.5398 58.88 56.5398 60.02C56.5398 60.68 56.8348 61.28 57.3657 61.64L56.7168 65.42C56.6578 65.78 56.9528 66.14 57.3067 66.14ZM58.5455 44.54C54.1213 44.54 50.5229 48.2 50.5229 52.7V53.42C49.0481 54.14 48.0453 55.64 48.0453 57.38V66.62C48.0453 69.02 49.992 71 52.3516 71H64.8574C67.217 71 69.1637 69.02 69.1637 66.62V57.44C69.1637 55.7 68.1609 54.14 66.6861 53.48V52.76C66.5682 48.2 62.9698 44.54 58.5455 44.54ZM56.9528 53.06V52.76C56.9528 51.86 57.6607 51.14 58.5455 51.14C59.4304 51.14 60.1382 51.86 60.1382 52.76V53.06H56.9528Z" fill="#FAD151"/>
</svg>
