<svg width="80" height="80" viewBox="0 0 80 80" fill="none" xmlns="http://www.w3.org/2000/svg">
<g clip-path="url(#clip0)">
<path d="M12.1545 0C7.36132 0 3.46484 3.89647 3.46484 8.68963C3.46484 13.4828 7.36132 17.3793 12.1545 17.3793C16.9639 17.3793 20.8441 13.4828 20.8441 8.68963C20.8441 3.89647 16.9476 0 12.1545 0ZM12.1545 13.9067C9.2851 13.9067 6.93743 11.559 6.93743 8.68963C6.93743 5.82026 9.2851 3.47259 12.1545 3.47259C15.0401 3.47259 17.3715 5.82026 17.3715 8.68963C17.3715 11.559 15.0238 13.9067 12.1545 13.9067Z" fill="white"/>
<path d="M12.1545 27.8296C7.36132 27.8296 3.46484 31.7261 3.46484 36.5192C3.46484 41.3124 7.36132 45.2088 12.1545 45.2088C16.9639 45.2088 20.8441 41.3124 20.8441 36.5192C20.8441 31.7261 16.9476 27.8296 12.1545 27.8296ZM12.1545 41.7363C9.2851 41.7363 6.93743 39.3886 6.93743 36.5192C6.93743 33.6498 9.2851 31.3022 12.1545 31.3022C15.0401 31.3022 17.3715 33.6335 17.3715 36.5192C17.3715 39.3886 15.0238 41.7363 12.1545 41.7363Z" fill="white"/>
<path d="M12.1545 55.6429C7.36132 55.6429 3.46484 59.5557 3.46484 64.3489C3.46484 69.142 7.36132 73.0385 12.1545 73.0385C16.9639 73.0385 20.8441 69.1257 20.8441 64.3326C20.8441 59.5394 16.9476 55.6429 12.1545 55.6429ZM12.1545 69.5496C9.2851 69.5496 6.93743 67.2019 6.93743 64.3326C6.93743 61.4632 9.2851 59.1155 12.1545 59.1155C15.0401 59.1155 17.3715 61.4632 17.3715 64.3326C17.3715 67.2019 15.0238 69.5496 12.1545 69.5496Z" fill="white"/>
<path d="M39.9845 0C35.1914 0 31.2949 3.89647 31.2949 8.68963C31.2949 13.4828 35.1914 17.3793 39.9845 17.3793C44.7777 17.3793 48.6742 13.4828 48.6742 8.68963C48.6742 3.89647 44.7777 0 39.9845 0ZM39.9845 13.9067C37.1152 13.9067 34.7675 11.559 34.7675 8.68963C34.7675 5.82026 37.1152 3.47259 39.9845 3.47259C42.8539 3.47259 45.2016 5.82026 45.2016 8.68963C45.2016 11.559 42.8539 13.9067 39.9845 13.9067Z" fill="white"/>
<path d="M67.8127 0C63.0195 0 59.123 3.89647 59.123 8.68963C59.123 13.4828 63.0195 17.3793 67.8127 17.3793C72.6058 17.3793 76.5023 13.4828 76.5023 8.68963C76.5023 3.89647 72.6058 0 67.8127 0ZM67.8127 13.9067C64.9433 13.9067 62.5956 11.559 62.5956 8.68963C62.5956 5.82026 64.9433 3.47259 67.8127 3.47259C70.682 3.47259 73.0297 5.82026 73.0297 8.68963C73.0297 11.559 70.682 13.9067 67.8127 13.9067Z" fill="white"/>
<path d="M12.1546 13.9066C11.1927 13.9066 10.4102 14.6892 10.4102 15.6511V29.5577C10.4102 30.5196 11.1927 31.3022 12.1546 31.3022C13.1165 31.3022 13.899 30.5196 13.899 29.5577V15.6511C13.899 14.6892 13.1165 13.9066 12.1546 13.9066Z" fill="white"/>
<path d="M12.1546 41.72C11.1927 41.72 10.4102 42.5025 10.4102 43.4644V57.3711C10.4102 58.333 11.1927 59.1155 12.1546 59.1155C13.1165 59.1155 13.899 58.3493 13.899 57.3711V43.4644C13.899 42.5025 13.1165 41.72 12.1546 41.72Z" fill="white"/>
<path d="M35.99 40.4972C35.3053 39.8125 34.213 39.8125 33.5282 40.4972L16.1327 57.8928C15.448 58.5775 15.448 59.6698 16.1327 60.3545C16.4751 60.6969 16.9316 60.8599 17.3717 60.8599C17.8282 60.8599 18.2684 60.6969 18.6108 60.3545L35.99 42.959C36.6748 42.2742 36.6748 41.1819 35.99 40.4972Z" fill="white"/>
<path d="M39.9845 27.8296C35.1914 27.8296 31.2949 31.7261 31.2949 36.5192C31.2949 41.3124 35.1914 45.2088 39.9845 45.2088C40.9464 45.2088 41.729 44.4426 41.729 43.4807C41.729 42.5188 40.9464 41.7363 39.9845 41.7363C37.1152 41.7363 34.7675 39.3886 34.7675 36.5192C34.7675 33.6498 37.1152 31.3022 39.9845 31.3022C42.8539 31.3022 45.2016 33.6498 45.2016 36.5192C45.2016 37.2366 45.0386 37.9702 44.7288 38.6549C44.3375 39.5353 44.7125 40.5624 45.5929 40.9537C46.4732 41.345 47.5003 40.97 47.8916 40.0896C48.4133 38.9484 48.6742 37.742 48.6742 36.5192C48.6742 31.7261 44.7777 27.8296 39.9845 27.8296Z" fill="white"/>
<path d="M67.8126 55.6267C66.8507 55.6267 66.0682 56.4093 66.0682 57.3712C66.0682 58.333 66.8507 59.1156 67.8126 59.1156C70.682 59.1156 73.0296 61.4633 73.0296 64.3326C73.0296 67.952 69.1169 70.6746 65.628 69.0443C64.7476 68.653 63.7205 69.0117 63.3129 69.8921C62.9053 70.7724 63.2803 71.7995 64.1607 72.2071C65.3345 72.7614 66.5573 73.0386 67.8126 73.0386C72.6058 73.0386 76.5022 69.1095 76.5022 64.3163C76.5022 59.5232 72.6058 55.6267 67.8126 55.6267Z" fill="white"/>
<path d="M67.8137 27.8134C63.0205 27.8134 59.1241 31.7098 59.1241 36.503C59.1241 38.1496 59.5805 39.6984 60.3957 41.019C59.5968 42.1113 59.1241 43.4645 59.1241 44.9155V49.7086L45.8206 36.4052C43.7664 34.351 40.196 34.351 38.1418 36.4052C36.0224 38.5246 36.0224 41.9646 38.1418 44.084L41.2557 47.1979C40.6688 47.4588 40.1145 47.8337 39.6254 48.3228C38.5983 49.3499 38.044 50.7194 38.044 52.1704C38.044 52.4312 38.0603 52.6758 38.0929 52.9366C37.0658 53.1323 36.0713 53.6214 35.2887 54.4202C33.7725 55.9364 33.3486 58.1374 34.0008 60.0449C33.2019 60.3057 32.452 60.7459 31.8161 61.3817C29.6967 63.5011 29.6967 66.9411 31.8161 69.0606L37.2125 74.4569C40.7992 78.0436 45.5598 80 50.6138 80C61.0641 80 69.5744 71.4897 69.5744 61.0557V45.0459C73.5361 44.2307 76.5359 40.7255 76.5359 36.5193C76.5033 31.7261 72.6068 27.8134 67.8137 27.8134ZM66.0855 45.0296V61.0231H66.0692C66.0692 69.5659 59.1241 76.4948 50.5975 76.4948C46.4727 76.4948 42.5763 74.8808 39.658 71.9625L34.2616 66.5662C33.4954 65.7999 33.4954 64.5772 34.2616 63.8109C34.6366 63.4359 35.142 63.2403 35.6311 63.2403C36.1365 63.2403 36.6256 63.4359 37.0169 63.8109C37.7016 64.4956 38.7939 64.4956 39.4786 63.8109C39.821 63.4685 39.9841 63.0284 39.9841 62.5719C39.9841 62.1154 39.821 61.6752 39.4786 61.3491L37.7342 59.6047C36.968 58.8384 36.968 57.6157 37.7342 56.8494C38.4678 56.1158 39.7558 56.1158 40.4895 56.8494L42.2339 58.5939C42.9186 59.2786 44.0109 59.2786 44.6957 58.5939C45.0381 58.2515 45.2011 57.8113 45.2011 57.3548C45.2011 56.8983 45.0381 56.4581 44.6957 56.1158L42.0872 53.5073C41.7285 53.1486 41.5166 52.6432 41.5166 52.1378C41.5166 51.6161 41.7285 51.127 42.0872 50.7683C42.8045 50.0347 44.0762 50.0347 44.8098 50.7357L49.1954 55.1213C49.8801 55.806 50.9724 55.806 51.6572 55.1213C52.3419 54.4365 52.3419 53.3442 51.6572 52.6595L47.3042 48.3065C47.2879 48.2902 47.2716 48.2739 47.2553 48.2576L40.6036 41.6222C39.8373 40.8559 39.8373 39.6332 40.6036 38.8669C41.3372 38.1333 42.6252 38.1333 43.3588 38.8669L59.6295 55.1376C60.1349 55.643 60.8848 55.7897 61.5206 55.5126C62.1728 55.2517 62.5966 54.6159 62.5966 53.8985V44.9155C62.5966 44.459 62.6945 44.0351 62.8575 43.6438C63.3466 42.5189 64.4715 41.72 65.7921 41.72C65.9551 41.72 66.0855 41.8504 66.0855 42.0135V45.0296ZM69.5092 41.4429C69.2321 39.6332 67.6669 38.2474 65.7921 38.2474C64.8465 38.2474 63.9498 38.4431 63.1346 38.8017C62.7923 38.1007 62.5966 37.3344 62.5966 36.503C62.5966 33.6336 64.9443 31.2859 67.8137 31.2859C70.683 31.2859 73.0307 33.6336 73.0307 36.503C73.0307 38.8017 71.5471 40.7418 69.5092 41.4429Z" fill="white"/>
</g>
<defs>
<clipPath id="clip0">
<rect width="80" height="80" fill="white"/>
</clipPath>
</defs>
</svg>
