<svg width="80" height="80" viewBox="0 0 80 80" fill="none" xmlns="http://www.w3.org/2000/svg">
<g clip-path="url(#clip0)">
<path d="M78.334 0.000244141C44.514 0.000244141 14.8308 47.1134 13.5841 49.1201C13.1773 49.7801 13.2741 50.6334 13.8208 51.1801L28.8208 66.1801C29.144 66.5001 29.5708 66.6668 30.0008 66.6668C30.304 66.6668 30.6108 66.5835 30.8808 66.4168C32.884 65.1668 80.0007 35.4869 80.0007 1.66696C80.0005 0.746805 79.254 0.000244141 78.334 0.000244141ZM30.2273 62.8667L17.1341 49.7734C21.754 42.7667 48.054 4.86024 76.624 3.3768C75.144 31.9267 37.2406 58.2401 30.2273 62.8667Z" fill="white"/>
<path d="M28.3335 30.0001C1.93683 30.0001 0.0202668 54.6434 0.00354808 54.8901C-0.0331706 55.4568 0.216829 56.0001 0.673547 56.3368C0.963546 56.5535 1.31683 56.6668 1.66683 56.6668C1.86683 56.6668 2.06011 56.6335 2.25354 56.5568L15.5868 51.5568C16.4501 51.2335 16.8868 50.2735 16.5601 49.4101C16.2368 48.5501 15.2668 48.1201 14.4134 48.4368L3.72667 52.4468C4.93666 46.6168 9.74337 33.3336 28.3333 33.3336C29.2533 33.3336 30.0001 32.5868 30.0001 31.6668C30.0001 30.7468 29.2535 30.0001 28.3335 30.0001Z" fill="white"/>
<path d="M48.3341 50.0001C47.4141 50.0001 46.6674 50.7468 46.6674 51.6668C46.6674 70.1868 33.3942 75.0301 27.5607 76.2668L31.564 65.5868C31.8907 64.7235 31.454 63.7635 30.5907 63.4401C29.7307 63.1201 28.7674 63.5501 28.444 64.4134L23.444 77.7466C23.244 78.2799 23.324 78.8733 23.664 79.3266C23.9773 79.7533 24.4773 79.9999 25.0007 79.9999C25.0374 79.9999 25.0707 79.9999 25.1074 79.9966C25.3574 79.9799 50.0007 78.0599 50.0007 51.6667C50.0007 50.7467 49.2541 50.0001 48.3341 50.0001Z" fill="white"/>
<path d="M19.5673 60.4867C19.4873 60.4067 19.3941 60.3367 19.2941 60.2734C16.0941 57.1567 12.9974 56.0867 10.1274 57.0734C2.53738 59.6767 0.247382 76.2467 0.0141013 78.1267C-0.0458986 78.5999 0.23082 79.0699 0.547382 79.4299C0.867381 79.7867 1.45066 79.9867 1.93066 79.9867C3.81394 79.7499 20.3806 77.4634 22.9806 69.87C23.9941 66.9201 22.8441 63.7634 19.5673 60.4867ZM19.8273 68.7934C18.5206 72.6134 9.85408 75.3001 3.64409 76.3701C4.74081 70.0634 7.41081 61.5301 11.2074 60.2269C11.5306 60.1169 11.8674 60.0636 12.2141 60.0636C13.6474 60.0636 15.3041 60.9936 17.1508 62.8469C17.2341 62.9301 17.3275 63.0036 17.4241 63.0669C19.5641 65.2767 20.3706 67.2001 19.8273 68.7934Z" fill="white"/>
<path d="M53.334 16.6667C47.8207 16.6667 43.334 21.1535 43.334 26.6667C43.334 32.18 47.8207 36.6667 53.334 36.6667C58.8472 36.6667 63.3339 32.18 63.3339 26.6667C63.3339 21.1535 58.8472 16.6667 53.334 16.6667ZM53.334 33.3334C49.6573 33.3334 46.6673 30.3434 46.6673 26.6667C46.6673 22.99 49.6573 20 53.334 20C57.0107 20 60.0007 22.99 60.0007 26.6667C60.0005 30.3434 57.0105 33.3334 53.334 33.3334Z" fill="white"/>
</g>
<defs>
<clipPath id="clip0">
<rect width="80" height="80" fill="white"/>
</clipPath>
</defs>
</svg>
