<svg width="118" height="118" viewBox="0 0 118 118" fill="none" xmlns="http://www.w3.org/2000/svg">
<circle cx="59" cy="59" r="59" fill="#323640"/>
<path d="M58.6823 33.2739C58.3948 33.301 58.1276 33.4335 57.932 33.6459C57.7364 33.8583 57.6264 34.1355 57.6231 34.4242L57.4953 38.8427C57.4905 38.9962 57.5159 39.1491 57.5703 39.2927C57.6246 39.4363 57.7066 39.5678 57.8118 39.6797C58.0241 39.9057 58.3176 40.0381 58.6276 40.0478C58.9375 40.0575 59.2387 39.9436 59.4647 39.7313C59.5767 39.6262 59.6668 39.5001 59.7299 39.3602C59.7931 39.2202 59.8281 39.0692 59.8329 38.9158L59.9607 34.4972C59.9693 34.3296 59.9417 34.162 59.8798 34.006C59.8178 33.8499 59.7229 33.7091 59.6016 33.593C59.4803 33.4769 59.3354 33.3883 59.1768 33.3333C59.0181 33.2782 58.8495 33.258 58.6823 33.2739ZM45.1679 39.7374C44.948 39.7556 44.7377 39.8357 44.5613 39.9684C44.385 40.1011 44.2499 40.281 44.1715 40.4873C44.0932 40.6936 44.0749 40.9178 44.1187 41.134C44.1625 41.3503 44.2667 41.5497 44.4191 41.7093L46.355 43.736C46.4552 43.8655 46.5816 43.9726 46.7258 44.0501C46.8701 44.1277 47.0291 44.1741 47.1924 44.1863C47.3558 44.1986 47.5199 44.1763 47.6741 44.121C47.8283 44.0657 47.9692 43.9787 48.0876 43.8655C48.206 43.7522 48.2992 43.6154 48.3613 43.4639C48.4234 43.3123 48.4529 43.1494 48.448 42.9857C48.443 42.822 48.4037 42.6611 48.3326 42.5136C48.2615 42.366 48.1601 42.2351 48.0352 42.1292L46.1176 40.1025C45.997 39.9741 45.849 39.8745 45.6846 39.8112C45.5201 39.748 45.3435 39.7228 45.1679 39.7374ZM72.142 39.7374C71.882 39.7795 71.6439 39.9082 71.4663 40.1025L69.5487 42.1292C69.4237 42.2351 69.3223 42.366 69.2512 42.5136C69.1801 42.6611 69.1408 42.822 69.1359 42.9857C69.1309 43.1494 69.1604 43.3123 69.2225 43.4639C69.2846 43.6154 69.3779 43.7522 69.4963 43.8655C69.6146 43.9787 69.7555 44.0657 69.9097 44.121C70.0639 44.1763 70.228 44.1986 70.3914 44.1863C70.5547 44.1741 70.7137 44.1277 70.858 44.0501C71.0023 43.9726 71.1286 43.8655 71.2289 43.736L73.1647 41.7093C73.3373 41.5335 73.4499 41.3076 73.4864 41.064C73.5229 40.8204 73.4815 40.5715 73.3681 40.3528C73.2547 40.1341 73.0751 39.9569 72.8549 39.8463C72.6347 39.7358 72.3852 39.6977 72.142 39.7374ZM58.7919 41.9832C51.5318 41.9832 45.6793 47.9523 45.6793 55.257C45.6793 58.3675 46.9922 60.9803 48.3274 63.236C50.4184 66.7688 50.7023 69.1462 50.7015 70.7402C50.7011 71.5371 50.5982 72.0954 50.6285 72.7304C50.6436 73.0478 50.6786 73.4745 51.0302 73.8989C51.3819 74.3232 51.9632 74.4832 52.3634 74.4832H65.2204C65.6206 74.4832 66.2019 74.3232 66.5536 73.8989C66.9053 73.4745 66.9402 73.0478 66.9554 72.7304C66.9857 72.0954 66.8827 71.5371 66.8823 70.7402C66.8815 69.1462 67.1654 66.7688 69.2565 63.236C70.5916 60.9803 71.9046 58.3675 71.9046 55.257C71.9046 47.9523 66.0521 41.9832 58.7919 41.9832ZM58.7919 44.3202C64.7772 44.3202 69.5669 49.1907 69.5669 55.257C69.5669 57.7066 68.5194 59.8822 67.2476 62.0309C64.959 65.8974 64.5437 68.8444 64.5447 70.7402C64.5451 71.4488 64.5822 71.8091 64.5995 72.1461H59.9607V59.3104C61.4951 58.8119 62.6088 57.376 62.6088 55.6952C62.6088 53.609 60.8896 51.8975 58.7919 51.8975C56.6942 51.8975 54.975 53.609 54.975 55.6952C54.975 57.376 56.0929 58.8119 57.6231 59.3104V72.1461H52.9844C53.0016 71.8091 53.0388 71.4488 53.0391 70.7402C53.0401 68.8444 52.6249 65.8974 50.3363 62.0309C49.0644 59.8822 48.0169 57.7066 48.0169 55.257C48.0169 49.1907 52.8066 44.3202 58.7919 44.3202ZM37.5523 50.7655C37.3988 50.7762 37.2489 50.8171 37.1112 50.8858C36.9735 50.9545 36.8507 51.0496 36.7498 51.1657C36.6488 51.2819 36.5718 51.4168 36.523 51.5627C36.4742 51.7086 36.4546 51.8627 36.4654 52.0162C36.4762 52.1697 36.5172 52.3195 36.5859 52.4572C36.6546 52.5948 36.7498 52.7176 36.866 52.8185C36.9822 52.9194 37.1171 52.9964 37.2631 53.0451C37.409 53.0939 37.5632 53.1134 37.7167 53.1025L42.1728 53.2121C42.3263 53.2157 42.479 53.189 42.6222 53.1336C42.7654 53.0782 42.8962 52.9952 43.0073 52.8892C43.1184 52.7832 43.2075 52.6564 43.2696 52.516C43.3316 52.3756 43.3654 52.2244 43.369 52.0709C43.3726 51.9175 43.3459 51.7648 43.2905 51.6217C43.2351 51.4785 43.152 51.3477 43.046 51.2366C42.9401 51.1256 42.8132 51.0365 42.6728 50.9744C42.5324 50.9124 42.3811 50.8786 42.2276 50.875L37.7897 50.7655C37.7108 50.7574 37.6313 50.7574 37.5523 50.7655ZM79.7941 50.7655L75.3562 50.875C75.0462 50.8823 74.7518 51.0124 74.5378 51.2366C74.3237 51.4609 74.2075 51.761 74.2148 52.0709C74.2221 52.3809 74.3522 52.6752 74.5765 52.8892C74.8009 53.1032 75.101 53.2194 75.411 53.2121L79.8671 53.1025C80.1771 53.0929 80.4706 52.9605 80.6829 52.7345C80.8953 52.5085 81.0091 52.2074 80.9994 51.8975C80.9897 51.5876 80.8573 51.2942 80.6313 51.0819C80.4052 50.8696 80.1041 50.7558 79.7941 50.7655ZM58.7919 54.2163C59.623 54.2163 60.2712 54.8687 60.2712 55.6952C60.2712 56.5218 59.623 57.1742 58.7919 57.1742C57.9608 57.1742 57.3126 56.5218 57.3126 55.6952C57.3126 54.8687 57.9608 54.2163 58.7919 54.2163ZM52.5095 75.6882C52.356 75.6966 52.2057 75.7351 52.0671 75.8016C51.9285 75.8681 51.8043 75.9612 51.7017 76.0756C51.5991 76.1901 51.52 76.3236 51.469 76.4686C51.418 76.6136 51.3961 76.7672 51.4045 76.9207C51.4129 77.0741 51.4515 77.2244 51.518 77.363C51.5845 77.5016 51.6776 77.6257 51.7921 77.7283C51.9066 77.8309 52.0401 77.9099 52.1852 77.9608C52.3302 78.0118 52.4839 78.0337 52.6374 78.0253H64.9465C65.1013 78.0275 65.2551 77.9989 65.3988 77.9411C65.5426 77.8834 65.6734 77.7977 65.7837 77.6889C65.894 77.5802 65.9816 77.4507 66.0414 77.3078C66.1011 77.1649 66.1319 77.0116 66.1319 76.8568C66.1319 76.7019 66.1011 76.5486 66.0414 76.4057C65.9816 76.2629 65.894 76.1333 65.7837 76.0246C65.6734 75.9159 65.5426 75.8301 65.3988 75.7724C65.2551 75.7146 65.1013 75.686 64.9465 75.6882H52.6374C52.5948 75.6859 52.5521 75.6859 52.5095 75.6882ZM53.6783 79.0295C53.5248 79.0379 53.3745 79.0764 53.2359 79.1429C53.0973 79.2094 52.9731 79.3025 52.8705 79.4169C52.7679 79.5314 52.6888 79.6649 52.6378 79.8099C52.5869 79.9549 52.5649 80.1085 52.5733 80.262C52.5817 80.4154 52.6203 80.5657 52.6868 80.7043C52.7533 80.8429 52.8464 80.967 52.9609 81.0696C53.0754 81.1721 53.209 81.2512 53.354 81.3021C53.499 81.3531 53.6527 81.375 53.8062 81.3666H63.7776C63.9325 81.3688 64.0863 81.3402 64.23 81.2824C64.3738 81.2247 64.5046 81.139 64.6149 81.0302C64.7252 80.9215 64.8128 80.792 64.8725 80.6491C64.9323 80.5062 64.9631 80.3529 64.9631 80.1981C64.9631 80.0432 64.9323 79.8899 64.8725 79.747C64.8128 79.6042 64.7252 79.4746 64.6149 79.3659C64.5046 79.2571 64.3738 79.1714 64.23 79.1137C64.0863 79.0559 63.9325 79.0273 63.7776 79.0295H53.8062C53.7636 79.0272 53.7209 79.0272 53.6783 79.0295ZM56.9109 82.3708C56.7573 82.3792 56.607 82.4177 56.4684 82.4842C56.3298 82.5507 56.2056 82.6438 56.103 82.7582C56.0004 82.8727 55.9213 83.0062 55.8704 83.1512C55.8194 83.2962 55.7974 83.4498 55.8058 83.6033C55.8142 83.7567 55.8528 83.907 55.9193 84.0456C55.9858 84.1842 56.0789 84.3083 56.1934 84.4109C56.3079 84.5134 56.4415 84.5925 56.5865 84.6434C56.7315 84.6944 56.8852 84.7163 57.0387 84.7079H60.5451C60.7 84.7101 60.8538 84.6815 60.9975 84.6237C61.1412 84.566 61.2721 84.4803 61.3824 84.3715C61.4927 84.2628 61.5803 84.1332 61.64 83.9904C61.6998 83.8475 61.7306 83.6942 61.7306 83.5393C61.7306 83.3845 61.6998 83.2312 61.64 83.0883C61.5803 82.9454 61.4927 82.8159 61.3824 82.7072C61.2721 82.5984 61.1412 82.5127 60.9975 82.455C60.8538 82.3972 60.7 82.3686 60.5451 82.3708H57.0387C56.9961 82.3685 56.9534 82.3685 56.9109 82.3708Z" fill="#FAD151"/>
</svg>
