<svg xmlns="http://www.w3.org/2000/svg" viewBox="0 0 359.55 107.23"><defs><style>.cls-1{fill:#00d500;}</style></defs><title>Asset 4MAVCOIN3exp</title><g id="Layer_2" data-name="Layer 2"><g id="Layer_1-2" data-name="Layer 1"><path class="cls-1" d="M35.56,23H112a0,0,0,0,1,0,0v37.9a0,0,0,0,1,0,0H50.18A14.62,14.62,0,0,1,35.56,46.3V23A0,0,0,0,1,35.56,23Z" transform="translate(96.26 123.81) rotate(-135)"/><path class="cls-1" d="M8.14,30.17h96a0,0,0,0,1,0,0V61.28a0,0,0,0,1,0,0H22.76A14.62,14.62,0,0,1,8.14,46.66V30.17a0,0,0,0,1,0,0Z" transform="translate(63.54 117.77) rotate(-135)"/><path class="cls-1" d="M62.57,86.55a14.62,14.62,0,0,1,0,20.68L77.69,92.11a14.62,14.62,0,0,0,0-20.68L6.26,0h0a21.38,21.38,0,0,0,0,30.24Z"/><path class="cls-1" d="M168.06,37.4a16,16,0,0,0-8,2.21,19.76,19.76,0,0,0-4.84,3.89,12.89,12.89,0,0,0-3.41-3.79,11.87,11.87,0,0,0-7.28-2.31A15.75,15.75,0,0,0,136,39.93l.31-1.78h-6.87l-5.51,31.26h6.87l2.68-15.17a12.23,12.23,0,0,1,3.84-7.11,9.34,9.34,0,0,1,6.49-2.84,6.08,6.08,0,0,1,4.73,2,7.48,7.48,0,0,1,1.89,5.3,13.85,13.85,0,0,1-.12,1.52l-.52,3h.08L147.5,69.41h6.87l2.68-15.17,0-.61A12.35,12.35,0,0,1,161,46.91a9.2,9.2,0,0,1,6.27-2.62,6,6,0,0,1,4.72,2,7.77,7.77,0,0,1,1.9,5.48,11.16,11.16,0,0,1-.18,1.92L171,69.41h6.94l2.68-15.22a22.51,22.51,0,0,0,.29-3.08,14,14,0,0,0-3.56-9.74A12,12,0,0,0,168.06,37.4Z"/><path class="cls-1" d="M211.21,40.25a11.89,11.89,0,0,0-8.06-2.85,16.66,16.66,0,0,0-11.54,4.83,20.24,20.24,0,0,0-6.33,11.54,22.25,22.25,0,0,0-.29,3.08,13.85,13.85,0,0,0,3.57,9.72,12.07,12.07,0,0,0,9.26,3.93,15.53,15.53,0,0,0,8.5-2.54l-.25,1.45H213l5.51-31.26h-6.94ZM198.5,63.68a6,6,0,0,1-4.72-2,7.76,7.76,0,0,1-1.9-5.47,11.27,11.27,0,0,1,.18-1.93,12.25,12.25,0,0,1,3.85-7.11,9.33,9.33,0,0,1,6.49-2.84,6,6,0,0,1,4.72,2A7.77,7.77,0,0,1,209,51.8a11.16,11.16,0,0,1-.18,1.92h0A12.27,12.27,0,0,1,205,60.84,9.33,9.33,0,0,1,198.5,63.68Z"/><polygon class="cls-1" points="243.77 36.8 232.48 57.38 228.31 36.73 226.7 37.27 221.7 39.09 227.79 69.75 233.18 69.75 249.99 39.29 243.77 36.8"/><path class="cls-1" d="M260.77,47.13a9.34,9.34,0,0,1,6.49-2.84,6,6,0,0,1,5.13,2.57l1.24,1.76,5.72-4.44-1.18-1.66A12,12,0,0,0,268,37.4a16.62,16.62,0,0,0-11.53,4.83,20.2,20.2,0,0,0-6.34,11.54,24,24,0,0,0-.29,3.08,13.89,13.89,0,0,0,3.57,9.72,12.1,12.1,0,0,0,9.27,3.93,16.65,16.65,0,0,0,11.5-4.88l1.73-1.52-4.62-4.75-1.52,1.53a9.16,9.16,0,0,1-6.41,2.8,6,6,0,0,1-4.73-2,7.8,7.8,0,0,1-1.9-5.47,11.34,11.34,0,0,1,.19-1.93A12.23,12.23,0,0,1,260.77,47.13Z"/><path class="cls-1" d="M310.88,51.12a24.29,24.29,0,0,1-.29,3.07,20.12,20.12,0,0,1-6.34,11.47,16.63,16.63,0,0,1-11.53,4.84,12.07,12.07,0,0,1-9.26-3.93,13.85,13.85,0,0,1-3.57-9.72,22.25,22.25,0,0,1,.29-3.08,20.24,20.24,0,0,1,6.33-11.54,16.7,16.7,0,0,1,11.54-4.83,12,12,0,0,1,9.26,4A14,14,0,0,1,310.88,51.12Z"/><polygon class="cls-1" points="318.43 39.32 313.12 69.41 319.99 69.41 325.5 38.15 318.69 38.15 318.43 39.32"/><path class="cls-1" d="M356,41.37a12,12,0,0,0-9.26-4,15.62,15.62,0,0,0-8.5,2.53l.32-1.78H331.6l-5.51,31.26H333l2.67-15.17a12.4,12.4,0,0,1,3.82-7.12A9.21,9.21,0,0,1,346,44.29a6.11,6.11,0,0,1,4.76,2,7.68,7.68,0,0,1,1.93,5.47,11.16,11.16,0,0,1-.18,1.92l-2.77,15.69h6.87l2.68-15.22a24.1,24.1,0,0,0,.29-3.08A14,14,0,0,0,356,41.37Z"/></g></g></svg>